<svg xmlns="http://www.w3.org/2000/svg" width="512" height="512" viewBox="0 0 512 512" version="1.1"><path d="M 234.500 129.467 C 134.344 152.492, 131.031 292.162, 230 319.180 C 242.972 322.721, 268.849 322.507, 281 318.758 C 291.269 315.590, 287.694 311.777, 308.976 348.599 C 328.932 383.125, 329.671 384, 338.854 384 C 348.135 384, 355 377.406, 355 368.490 C 355 364.066, 355.321 364.690, 335.344 330.280 C 326.333 314.760, 318.688 301.351, 318.356 300.485 C 317.948 299.421, 320.009 296.564, 324.690 291.704 C 389.933 223.973, 325.735 108.492, 234.500 129.467 M 245.833 160.134 C 192.657 166.822, 170.296 232.756, 208.389 270.547 C 248.548 310.388, 315.574 285.125, 319.583 228.635 C 322.439 188.401, 286.500 155.020, 245.833 160.134 M 245.952 178.253 C 240.107 182.192, 238.566 186.127, 238.152 198.167 L 237.784 208.833 226.462 209.167 C 195.800 210.069, 197.494 241, 228.205 241 L 237.779 241 238.150 251.838 C 239.201 282.546, 270 282.559, 270 251.852 L 270 241 279.935 241 C 311.474 241, 313.451 210.383, 282 209.004 L 270.500 208.500 270 196.998 C 269.201 178.617, 258.171 170.019, 245.952 178.253" stroke="none" fill="#fafbfa" fill-rule="evenodd"/><path d="M 223.564 1.625 C -11.239 31.696, -81.939 338.254, 115.500 470.191 C 270.645 573.865, 490.722 472.763, 510.078 288.923 C 510.681 283.191, 511.586 277.719, 512.088 276.764 C 512.589 275.809, 512.964 265.459, 512.921 253.764 C 512.878 242.069, 512.566 233.175, 512.229 234 C 511.891 234.825, 511.041 230.441, 510.338 224.258 C 494.633 85.969, 362.987 -16.231, 223.564 1.625 M 234.500 129.467 C 134.344 152.492, 131.031 292.162, 230 319.180 C 242.972 322.721, 268.849 322.507, 281 318.758 C 291.269 315.590, 287.694 311.777, 308.976 348.599 C 328.932 383.125, 329.671 384, 338.854 384 C 348.135 384, 355 377.406, 355 368.490 C 355 364.066, 355.321 364.690, 335.344 330.280 C 326.333 314.760, 318.688 301.351, 318.356 300.485 C 317.948 299.421, 320.009 296.564, 324.690 291.704 C 389.933 223.973, 325.735 108.492, 234.500 129.467 M 245.833 160.134 C 192.657 166.822, 170.296 232.756, 208.389 270.547 C 248.548 310.388, 315.574 285.125, 319.583 228.635 C 322.439 188.401, 286.500 155.020, 245.833 160.134 M 245.952 178.253 C 240.107 182.192, 238.566 186.127, 238.152 198.167 L 237.784 208.833 226.462 209.167 C 195.800 210.069, 197.494 241, 228.205 241 L 237.779 241 238.150 251.838 C 239.201 282.546, 270 282.559, 270 251.852 L 270 241 279.935 241 C 311.474 241, 313.451 210.383, 282 209.004 L 270.500 208.500 270 196.998 C 269.201 178.617, 258.171 170.019, 245.952 178.253" stroke="none" fill="#4cac4c" fill-rule="evenodd"/></svg>